<svg xmlns="http://www.w3.org/2000/svg" width="690.569" height="668.83" viewBox="0 0 690.569 668.83"><g transform="translate(-57.189 -0.01)"><path d="M927.171,245.864c26.72,38.985,20.807,89.488,20.807,89.488s-49.235-12.7-75.955-51.69-20.807-89.488-20.807-89.488S900.451,206.879,927.171,245.864Z" transform="translate(-227.121 -115.58)" fill="#2f2e41"/><path d="M907.945,253.308c3.127,47.16,39.017,83.179,39.017,83.179s30.821-40.442,27.694-87.6-39.017-83.179-39.017-83.179S904.818,206.149,907.945,253.308Z" transform="translate(-227.121 -115.58)" fill="#0fbf61"/><path d="M601.167,116.562,963.942,298.951a17.155,17.155,0,0,1,9.41,16.482l-21.077,312.2a8.5,8.5,0,0,1-12.315,7.013L568.913,445.287l19.049-321.114a9.123,9.123,0,0,1,13.205-7.611Z" transform="translate(-227.121 -115.58)" fill="#d0cde1"/><path d="M605.342,122.924l353.864,177.91a16.733,16.733,0,0,1,9.179,16.077L947.826,621.446a8.291,8.291,0,0,1-12.012,6.841L573.88,443.575l18.581-313.227a8.9,8.9,0,0,1,12.881-7.424Z" transform="translate(-227.121 -115.58)" fill="#3f3d56"/><path d="M620.851,146.554l320.767,161.27a15.168,15.168,0,0,1,8.32,14.574L931.3,598.45a7.515,7.515,0,0,1-10.889,6.2L592.331,437.215l16.843-283.931a8.067,8.067,0,0,1,11.677-6.73Z" transform="translate(-227.121 -115.58)" fill="#fff"/><path d="M289.867,598.911,653.1,781.842a24.185,24.185,0,0,0,21.786-.028L943.6,645.406c3.151-3.151,2.711-7.82,1.7-11.326a25.232,25.232,0,0,0-1.987-4.9L906.7,609.924,598.831,456.315l-18.394-9.765a34.059,34.059,0,0,0-31.636-.128L289.753,580.985a10.058,10.058,0,0,0,.114,17.926Z" transform="translate(-227.121 -115.58)" fill="#d0cde1"/><path d="M289.867,598.911,653.1,781.842a24.185,24.185,0,0,0,21.786-.028L943.6,645.406c3.151-3.151,2.711-7.82,1.7-11.326L677.4,773.334a23.37,23.37,0,0,1-21.2.182L284.445,588.308A10.017,10.017,0,0,0,289.867,598.911Z" transform="translate(-227.121 -115.58)" opacity="0.1"/><path d="M634.638,653.721,517,594.276a16.53,16.53,0,0,0-15.244.174l-68.241,36.457a4.882,4.882,0,0,0,.1,8.664l119.941,60.483a13.586,13.586,0,0,0,12.786-.294l68.513-38.6a4.2,4.2,0,0,0-.222-7.44Z" transform="translate(-227.121 -115.58)" opacity="0.1"/><path d="M911.687,643.779,785.1,711.028a10.3,10.3,0,0,1-9.477.1l-357.66-180.87a6.082,6.082,0,0,1,.047-10.879L541.625,458.2a13.4,13.4,0,0,1,11.977.043L911.631,638.626a2.9,2.9,0,0,1,.056,5.153Z" transform="translate(-227.121 -115.58)" opacity="0.1"/><rect width="1.419" height="130.118" transform="translate(481.982 194.088) rotate(-63.435)" fill="#0fbf61"/><rect width="1.418" height="130.759" transform="matrix(0.455, -0.89, 0.89, 0.455, 481.961, 211.144)" fill="#0fbf61"/><rect width="1.42" height="74.9" transform="translate(503.274 243.753) rotate(-62.922)" fill="#0fbf61"/><path d="M374.28,108.551,364,133l86.768,45.545L480,93" fill="#f2f2f2"/><path d="M448.768,163.545,487.1,73.352,399,30l-37,88Z" fill="#0fbf61"/><rect width="1.42" height="74.9" transform="translate(396.274 65.753) rotate(-62.922)" fill="#fff"/><rect width="1.42" height="74.9" transform="translate(391.274 77.753) rotate(-62.922)" fill="#fff"/></g></svg>